<?xml version="1.0" encoding="iso-8859-1"?>
<!-- Generator: Adobe Illustrator 19.0.0, SVG Export Plug-In . SVG Version: 6.00 Build 0)  -->
<svg version="1.1" id="Capa_1" xmlns="http://www.w3.org/2000/svg" xmlns:xlink="http://www.w3.org/1999/xlink" x="0px" y="0px"
	 viewBox="0 0 511.999 511.999" style="enable-background:new 0 0 511.999 511.999;" xml:space="preserve">
<path style="fill:#231F20;" d="M383.996,230.42H85.369c-4.71,0-8.532-3.822-8.532-8.532s3.822-8.532,8.532-8.532h298.627
	c61.261,0.009,110.919-49.649,110.927-110.91c0-33.131-14.803-64.529-40.374-85.604c-3.635-3.003-4.155-8.379-1.152-12.013
	c3.003-3.635,8.379-4.155,12.013-1.152c54.546,44.956,62.319,125.62,17.363,180.157C458.448,213.338,422.221,230.42,383.996,230.42z
	"/>
<path style="fill:#78B9EB;" d="M383.996,196.291H136.563c-4.71,0-8.532-3.822-8.532-8.532s3.822-8.532,8.532-8.532h247.434
	c42.414-0.017,76.773-34.41,76.756-76.824c-0.009-14.71-4.232-29.103-12.184-41.475c-2.594-3.933-1.51-9.223,2.423-11.817
	c3.933-2.594,9.223-1.51,11.817,2.423c0.034,0.043,0.06,0.094,0.085,0.137c28.037,43.6,15.426,101.67-28.173,129.706
	C419.593,191.103,401.982,196.282,383.996,196.291z"/>
<path style="fill:#231F20;" d="M22.172,396.012c-2.901,0-5.606-1.468-7.176-3.908c-28.088-43.523-15.571-101.576,27.951-129.664
	c15.861-10.23,34.436-15.443,53.301-14.957h407.199c4.71,0,8.532,3.822,8.532,8.532c0,4.71-3.822,8.532-8.532,8.532H96.248
	c-42.362-1.34-77.788,31.91-79.136,74.264c-0.495,15.58,3.763,30.938,12.218,44.035c2.56,3.959,1.425,9.24-2.534,11.8
	C25.414,395.535,23.81,396.012,22.172,396.012z"/>
<g>
	<path style="fill:#006DF0;" d="M435.19,93.904c-4.71,0-8.532,3.822-8.532,8.532c-0.026,23.549-19.112,42.635-42.661,42.661H273.078
		c-4.71,0-8.532,3.822-8.532,8.532s3.822,8.532,8.532,8.532h110.919c32.968-0.034,59.691-26.757,59.725-59.725
		C443.722,97.718,439.899,93.904,435.19,93.904z"/>
	<path style="fill:#006DF0;" d="M375.464,128.033c-18.848,0-34.129-15.281-34.129-34.129s15.281-34.129,34.129-34.129
		c18.848,0,34.129,15.281,34.129,34.129c0,4.71-3.822,8.532-8.532,8.532c-4.71,0-8.532-3.822-8.532-8.532
		c0-9.428-7.636-17.064-17.064-17.064S358.4,84.476,358.4,93.904s7.636,17.064,17.064,17.064c4.71,0,8.532,3.822,8.532,8.532
		S380.174,128.033,375.464,128.033z"/>
</g>
<path style="fill:#231F20;" d="M332.001,510.276c-4.71,0-8.532-3.822-8.532-8.532c0-2.543,1.135-4.957,3.097-6.578
	c47.26-38.975,53.975-108.888,14.991-156.148c-21.066-25.545-52.439-40.34-85.544-40.34H85.369c-4.71,0-8.532-3.822-8.532-8.532
	c0-4.71,3.822-8.532,8.532-8.532h170.644c70.681-0.009,127.991,57.285,128,127.966c0,38.233-17.081,74.46-46.586,98.777
	C335.892,509.602,333.972,510.284,332.001,510.276z"/>
<g>
	<path style="fill:#006DF0;" d="M327.744,464.27c-4.71,0-8.532-3.822-8.524-8.541c0-1.638,0.478-3.251,1.365-4.624
		c22.926-35.682,12.585-83.189-23.097-106.115c-12.372-7.952-26.766-12.184-41.475-12.184H204.82c-4.71,0-8.532-3.822-8.532-8.532
		c0-4.71,3.822-8.532,8.532-8.532h51.193c51.833,0.017,93.837,42.055,93.82,93.888c-0.009,17.994-5.188,35.605-14.914,50.732
		C333.341,462.794,330.645,464.27,327.744,464.27z"/>
	<path style="fill:#006DF0;" d="M256.013,349.87H204.82c-4.71,0-8.532,3.822-8.532,8.532c0,4.71,3.822,8.532,8.532,8.532h51.193
		c23.549,0.026,42.635,19.112,42.661,42.661c0,4.71,3.822,8.532,8.532,8.532c4.71,0,8.532-3.822,8.532-8.532
		C315.696,376.627,288.982,349.904,256.013,349.87z"/>
	<path style="fill:#006DF0;" d="M247.481,452.257c-18.848,0-34.129-15.281-34.129-34.129c0-18.848,15.281-34.129,34.129-34.129
		c4.71,0,8.532,3.822,8.532,8.532c0,4.71-3.822,8.532-8.532,8.532c-9.428,0-17.064,7.636-17.064,17.064
		c0,9.428,7.636,17.064,17.064,17.064c9.428,0,17.064-7.636,17.064-17.064c0-4.71,3.822-8.532,8.532-8.532
		c4.71,0,8.532,3.822,8.532,8.532C281.61,436.975,266.329,452.257,247.481,452.257z"/>
	<path style="fill:#006DF0;" d="M238.949,162.162H204.82c-4.71,0-8.532-3.822-8.532-8.532s3.822-8.532,8.532-8.532h34.129
		c4.71,0,8.532,3.822,8.532,8.532S243.659,162.162,238.949,162.162z"/>
	<path style="fill:#006DF0;" d="M170.691,332.806h-34.129c-4.71,0-8.532-3.822-8.532-8.532c0-4.71,3.822-8.532,8.532-8.532h34.129
		c4.71,0,8.532,3.822,8.532,8.532C179.224,328.983,175.401,332.806,170.691,332.806z"/>
</g>
<g>
</g>
<g>
</g>
<g>
</g>
<g>
</g>
<g>
</g>
<g>
</g>
<g>
</g>
<g>
</g>
<g>
</g>
<g>
</g>
<g>
</g>
<g>
</g>
<g>
</g>
<g>
</g>
<g>
</g>
</svg>
